# xmcd
#
# Track frame offsets:
#	150
#	12677
#	27190
#	40493
#	54590
#	66219
#	78048
#	93445
#	109344
#	122464
#	135106
#	148686
#	162501
#	173328
#	190624
#	201112
#	216300
#	226436
#	244883
#	256077
#	277892
#
# Disc length: 3783 seconds
#
# Revision: 1
# Processed by: cddbd v1.5.2PL0 Copyright (c) Steve Scherf et al.
# Submitted via: audiograbber 1.83.01
#
DISCID=1e0ec515
DTITLE=Kenny Rogers - For The Good Times
DYEAR=1999
DGENRE=Country
TTITLE0=Reuben James
TTITLE1=Sunshine
TTITLE2=Ruby Don't Take Your Love To Town
TTITLE3=Molly
TTITLE4=Me And Bobby McGee
TTITLE5=Elvira
TTITLE6=For The Good Times
TTITLE7=Tulsa Turnaround
TTITLE8=Sleep Comes Easy
TTITLE9=Love Woman
TTITLE10=Shine On Ruby Mountain
TTITLE11=I'm Gonna Sing You A Sad Song Suzie
TTITLE12=We All Got To Help Each Other
TTITLE13=Somethings Burning
TTITLE14=Ticket To Nowhere
TTITLE15=Tell It All Brother
TTITLE16=Where Does Rosie Go
TTITLE17=The King Of Oak Street
TTITLE18=Always Leaving, Always Gone
TTITLE19=She Even Woke Me Up To Say Goodbye
TTITLE20=Adatsáv
EXTD=
EXTT0=
EXTT1=
EXTT2=
EXTT3=
EXTT4=
EXTT5=
EXTT6=
EXTT7=
EXTT8=
EXTT9=
EXTT10=
EXTT11=
EXTT12=
EXTT13=
EXTT14=
EXTT15=
EXTT16=
EXTT17=
EXTT18=
EXTT19=
EXTT20=
PLAYORDER=
